<svg width="352" height="352" viewBox="0 0 352 352" fill="none" xmlns="http://www.w3.org/2000/svg">
<g filter="url(#filter0_d_180_5968)">
<path d="M152 143.999L178.064 163.551C179.679 164.762 181.692 165.318 183.699 165.107C185.706 164.897 187.56 163.935 188.888 162.415L240 103.999" stroke="#FF5500" stroke-width="16" stroke-linecap="round"/>
<path d="M248 159.999C248 175.043 243.288 189.709 234.525 201.938C225.762 214.167 213.389 223.343 199.143 228.179C184.898 233.015 169.495 233.267 155.098 228.899C140.702 224.532 128.035 215.765 118.877 203.829C109.719 191.894 104.53 177.389 104.038 162.353C103.547 147.317 107.777 132.504 116.136 119.996C124.495 107.488 136.562 97.9117 150.642 92.6132C164.722 87.3148 180.109 86.5599 194.64 90.4547" stroke="#FF5500" stroke-width="16" stroke-linecap="round"/>
</g>
<defs>
<filter id="filter0_d_180_5968" x="0" y="0" width="352" height="352" filterUnits="userSpaceOnUse" color-interpolation-filters="sRGB">
<feFlood flood-opacity="0" result="BackgroundImageFix"/>
<feColorMatrix in="SourceAlpha" type="matrix" values="0 0 0 0 0 0 0 0 0 0 0 0 0 0 0 0 0 0 127 0" result="hardAlpha"/>
<feOffset dy="4"/>
<feGaussianBlur stdDeviation="12"/>
<feComposite in2="hardAlpha" operator="out"/>
<feColorMatrix type="matrix" values="0 0 0 0 1 0 0 0 0 0.333333 0 0 0 0 0 0 0 0 1 0"/>
<feBlend mode="normal" in2="BackgroundImageFix" result="effect1_dropShadow_180_5968"/>
<feBlend mode="normal" in="SourceGraphic" in2="effect1_dropShadow_180_5968" result="shape"/>
</filter>
</defs>
</svg>
