<svg width="480" height="480" viewBox="0 0 480 480" fill="none" xmlns="http://www.w3.org/2000/svg">
<path d="M450 132.681C454.418 132.681 458 136.263 458 140.681V398C458 402.418 454.418 406 450 406H26C21.5817 406 18 402.418 18 398V140.681C18 136.263 21.5817 132.681 26 132.681H147.5C151.918 132.681 155.5 129.1 155.5 124.681V105.35C155.5 101.506 156.216 97.9473 157.648 94.6731C159.081 91.399 161.014 88.5519 163.449 86.1319C165.884 83.7119 168.82 81.719 172.258 80.1531C175.695 78.5872 179.276 77.8754 183 78.0178H293C296.867 78.0178 300.448 78.7296 303.742 80.1531C307.036 81.5766 309.901 83.4984 312.336 85.9184C314.771 88.3384 316.776 91.2567 318.352 94.6731C319.927 98.0896 320.643 101.648 320.5 105.35V124.681C320.5 129.1 324.082 132.681 328.5 132.681H450ZM183 124.681C183 129.1 186.582 132.681 191 132.681H285C289.418 132.681 293 129.1 293 124.681V113.35C293 108.931 289.418 105.35 285 105.35H191C186.582 105.35 183 108.931 183 113.35V124.681ZM53.5 160.013C49.0817 160.013 45.5 163.595 45.5 168.013V194.552C45.5 197.593 47.2239 200.37 49.9488 201.72L171.449 261.91C176.766 264.544 183 260.676 183 254.742V250.009C183 245.591 186.582 242.009 191 242.009H285C289.418 242.009 293 245.591 293 250.009V254.742C293 260.676 299.234 264.544 304.551 261.91L426.051 201.72C428.776 200.37 430.5 197.593 430.5 194.552V168.013C430.5 163.595 426.918 160.013 422.5 160.013H53.5ZM218.5 269.341C214.082 269.341 210.5 272.922 210.5 277.341V288.673C210.5 293.091 214.082 296.673 218.5 296.673H257.5C261.918 296.673 265.5 293.091 265.5 288.673V277.341C265.5 272.922 261.918 269.341 257.5 269.341H218.5ZM422.5 378.668C426.918 378.668 430.5 375.086 430.5 370.668V242.765C430.5 236.822 424.25 232.953 418.931 235.605L297.431 296.172C294.716 297.525 293 300.298 293 303.332V316.004C293 320.423 289.418 324.004 285 324.004H191C186.582 324.004 183 320.423 183 316.004V303.332C183 300.298 181.284 297.525 178.569 296.172L57.0691 235.605C51.7505 232.954 45.5 236.822 45.5 242.765V370.668C45.5 375.086 49.0817 378.668 53.5 378.668H422.5Z" fill="#FF5500"/>
</svg>
